HIERARCHY
ROOT Hips
{
	OFFSET 0.00000 0.00000 0.00000
	CHANNELS 6 Xposition Yposition Zposition Yrotation Zrotation Xrotation 
	JOINT Lumbar
	{
		OFFSET 0 0 0
		CHANNELS 3 Zrotation Xrotation Yrotation
		JOINT Neck
		{
			OFFSET 0.00 0.2701 0.00
			CHANNELS 3 Zrotation Xrotation Yrotation
			End Site
			{
				OFFSET 0.00 0.1379 0.00
			}
		}
		JOINT RightShoulder
		{
			OFFSET 0.0119 0.2289 0.1181
			CHANNELS 3 Zrotation Xrotation Yrotation
			JOINT RightElbow
			{
				OFFSET 0.00 -0.1475 0.00
				CHANNELS 2 Zrotation Yrotation
				JOINT RightWrist
				{
					OFFSET 0.00 -0.1605 0.00
					CHANNELS 2 Zrotation Xrotation
					End Site
					{
						OFFSET 0.0040 -0.1068 0.0006
					}
				}
			}
		}
		JOINT LeftShoulder
		{
			OFFSET 0.0119 0.2289 -0.1181
			CHANNELS 3 Zrotation Xrotation Yrotation
			JOINT LeftElbow
			{
				OFFSET 0.00 -0.1475 0.00
				CHANNELS 2 Zrotation Yrotation
				JOINT LeftWrist
				{
					OFFSET 0.00 -0.1605 0.00
					CHANNELS 2 Zrotation Xrotation
					End Site
					{
						OFFSET 0.0040 -0.1068 -0.0006
					}
				}
			}
		}
	}
	JOINT RightHip
	{
		OFFSET 0.0316 -0.0424 0.0458
		CHANNELS 3 Zrotation Xrotation Yrotation
		JOINT RightKnee
		{
			OFFSET 0.00 -0.2438 0.00
			CHANNELS 1 Zrotation
			JOINT RightAnkle
			{
				OFFSET 0.00 -0.2449 0.00
				CHANNELS 3 Zrotation Xrotation Yrotation
				End Site
				{
					OFFSET 0.1237 -0.0542 0.0051
				}
			}
		}
	}
	JOINT LeftHip
	{
		OFFSET 0.0316 -0.0424 -0.0458
		CHANNELS 3 Zrotation Xrotation Yrotation
		JOINT LeftKnee
		{
			OFFSET 0.00 -0.2438 0.00
			CHANNELS 1 Zrotation
			JOINT LeftAnkle
			{
				OFFSET 0.00 -0.2449 0.00
				CHANNELS 3 Zrotation Xrotation Yrotation
				End Site
				{
					OFFSET 0.1237 -0.0542 -0.0051
				}
			}
		}
	}
}
MOTION
Frames: 35
Frame Time: 0.02
-0 0.57926 0 190.61497 0 -4.21881 4.56266 5.33114 -3.97989 -7.69418 2.92607 -1.3053 -5.17652 -11.52388 -82.87346 5.78637 76.95418 -5.31407 2.91589 -6.90135 3.42954 87.1662 5.78699 -73.38865 -9.82552 -0.21164 -3.27608 6.35793 6.25434 -5.62014 1.89889 -3.13143 -5.3725 -2.41758 0.71367 -13.35217 -5.49827 5.34499 4.98164 13.92568
0.00039 0.57922 -9e-05 190.53516 0 -4.22149 4.62761 5.31397 -3.95728 -7.94318 3.0848 -1.30606 -3.8964 -11.87035 -72.71911 5.78556 77.1384 -4.76594 3.14823 -5.16335 3.42592 85.34165 5.78656 -73.57781 -9.13611 -0.32099 -3.21647 6.36082 6.38635 -5.64689 1.89562 -3.1372 -5.41315 -2.38854 0.78344 -11.87469 -5.47163 5.45311 4.87016 12.52017
0.00077 0.57917 -0.00018 190.45592 0 -4.22415 4.69268 5.29674 -3.93486 -8.19189 3.24273 -1.30671 -2.61502 -12.21528 -62.61251 5.78694 77.32272 -4.22148 3.37338 -3.42674 3.42382 83.48054 5.78723 -73.76794 -8.45088 -0.42731 -3.15727 6.36366 6.51717 -5.67306 1.89208 -3.14286 -5.45327 -2.35933 0.85266 -10.40862 -5.44558 5.56039 4.7595 11.12541
0.00116 0.57913 -0.00028 190.37796 0 -4.2268 4.75838 5.27919 -3.91348 -8.44051 3.39969 -1.30726 -1.32161 -12.55839 -52.60056 5.79397 77.50883 -3.68515 3.57127 -1.68631 3.42786 81.44702 5.78764 -73.9618 -7.775 -0.52323 -3.09895 6.36644 6.645 -5.69777 1.88784 -3.14833 -5.49198 -2.32991 0.92055 -8.9734 -5.42025 5.66517 4.65084 9.75994
0.00155 0.57908 -0.00037 190.29295 0 -4.22959 4.82017 5.26341 -3.88719 -8.68795 3.56265 -1.30875 -0.09853 -12.91234 -42.09035 5.76736 77.68497 -3.10426 3.91266 0.02476 3.3995 80.31659 5.78386 -74.13347 -7.04876 -0.67505 -3.03574 6.36969 6.78924 -5.73092 1.88779 -3.15506 -5.53853 -2.30256 0.99573 -7.37426 -5.38939 5.78296 4.53134 8.23926
0.00193 0.57904 -0.00046 190.22312 0 -4.23203 4.89053 5.24385 -3.8709 -8.93878 3.71217 -1.30796 1.27658 -13.24216 -32.64244 5.81442 77.88236 -2.61921 3.95081 1.80239 3.43962 77.28426 5.79271 -74.35357 -6.43033 -0.70794 -2.98312 6.3718 6.89828 -5.74572 1.87852 -3.15898 -5.56819 -2.27021 1.05525 -6.12375 -5.37142 5.87326 4.43505 7.04844
0.00232 0.57902 -0.00055 190.19402 0 -4.23388 4.98438 5.21337 -3.88631 -9.19705 3.83181 -1.30316 3.08735 -13.51869 -25.99365 6.05157 78.14336 -2.38697 3.11572 3.76864 3.67781 68.66136 5.80496 -74.70431 -6.09892 -0.40494 -2.95754 6.37184 6.91224 -5.71287 1.84578 -3.15615 -5.5531 -2.2276 1.07271 -5.83532 -5.38128 5.88639 4.40133 6.76899
0.0027 0.57902 -0.00064 190.18095 0 -4.23531 5.08703 5.17913 -3.91115 -9.45945 3.93633 -1.29575 5.05035 -13.76823 -20.43793 6.36488 78.42527 -2.25374 1.97971 5.80317 3.98386 58.17237 5.83471 -75.10481 -5.87816 0.01759 -2.94287 6.37054 6.89009 -5.66131 1.80351 -3.1504 -5.52091 -2.17889 1.07404 -5.89953 -5.40626 5.87213 4.39142 6.82256
0.00309 0.57901 -0.00072 190.16065 0 -4.23671 5.18587 5.1469 -3.92899 -9.72149 4.0436 -1.28787 6.93624 -14.02243 -14.45712 6.65358 78.6946 -2.08219 1.0042 7.80611 4.25324 48.74436 5.87831 -75.48512 -5.61308 0.38032 -2.92478 6.36909 6.88336 -5.61578 1.76402 -3.1452 -5.49491 -2.13107 1.08217 -5.80141 -5.42854 5.87114 4.37136 6.7227
0.00348 0.57899 -0.00082 190.13803 0 -4.23907 5.28381 5.11341 -3.95805 -9.97689 4.16961 -1.28643 8.85691 -14.31074 -8.16142 6.90396 78.97649 -1.88111 -0.06954 9.81202 4.54681 38.41308 5.83424 -75.85554 -5.32203 0.76405 -2.9008 6.37074 6.88167 -5.57898 1.73029 -3.14289 -5.47433 -2.0927 1.09306 -5.70851 -5.43046 5.86629 4.34787 6.63016
0.00385 0.579 -0.00089 190.12668 0 -4.23926 5.38582 5.08165 -3.96624 -10.24738 4.2513 -1.27162 10.73933 -14.51901 -2.79819 7.24732 79.23767 -1.7668 -1.01256 11.82685 4.80659 29.52701 5.97147 -76.2579 -5.11242 1.13506 -2.89096 6.36575 6.85982 -5.5217 1.68327 -3.13438 -5.43995 -2.03134 1.09372 -5.69301 -5.48185 5.86346 4.33792 6.60345
0.00417 0.57908 -0.0009 190.1204 0 -4.23426 5.49587 5.0556 -3.91201 -10.55604 4.22892 -1.21519 12.49563 -14.53511 0.40214 7.87083 79.43171 -1.85158 -1.49869 13.8588 4.95248 25.02815 6.65164 -76.73901 -5.09145 1.41726 -2.92217 6.3419 6.80141 -5.39669 1.59433 -3.10547 -5.35922 -1.92329 1.07536 -5.76634 -5.63727 5.86899 4.35313 6.65956
0.00446 0.5792 -0.00089 190.12928 0 -4.22707 5.6098 5.03144 -3.83682 -10.88004 4.1597 -1.14649 14.20425 -14.4674 2.67124 8.57724 79.60439 -2.02256 -1.84565 15.89455 5.06287 22.06208 7.50477 -77.24894 -5.15039 1.68559 -2.96543 6.31183 6.72278 -5.25647 1.49434 -3.07149 -5.26812 -1.78921 1.04623 -5.9128 -5.84788 5.87841 4.38237 6.77362
0.00476 0.5793 -0.00088 190.1454 0 -4.22029 5.72275 5.00637 -3.77295 -11.19886 4.10245 -1.08676 15.92486 -14.42355 5.277 9.21841 79.79091 -2.16566 -2.27277 17.92405 5.19195 18.42967 8.24838 -77.74531 -5.17867 1.97822 -3.00123 6.28483 6.64577 -5.13124 1.40358 -3.04202 -5.18911 -1.65735 1.01858 -6.05083 -6.05152 5.88834 4.40932 6.87262
0.00508 0.5794 -0.0009 190.10141 0 -4.21552 5.83314 4.98128 -3.70218 -11.51099 4.08426 -1.0122 17.69512 -14.43902 8.22558 9.97944 79.9636 -2.2675 -2.64482 19.9798 5.31215 14.59231 9.1239 -78.24993 -5.18667 2.20525 -3.04953 6.25567 6.59645 -4.96379 1.29223 -3.00179 -5.07583 -1.5669 1.00486 -6.09557 -6.1771 5.8869 4.41968 6.93578
0.00535 0.57951 -0.00086 190.18726 0 -4.20657 5.94911 4.95684 -3.64023 -11.83971 3.97348 -0.96617 19.34427 -14.31113 10.23366 10.50846 80.15613 -2.47071 -3.08727 21.97492 5.44212 11.5854 9.76455 -78.73782 -5.2548 2.55628 -3.06985 6.2309 6.4889 -4.89028 1.22439 -2.98448 -5.03485 -1.38276 0.95967 -6.3485 -6.48082 5.91141 4.46783 7.08282
0.00553 0.57968 -0.00065 190.61679 0 -4.18155 6.08409 4.93244 -3.6109 -12.21783 3.6216 -0.99679 20.70578 -13.81105 10.05207 10.3859 80.43985 -2.96484 -3.81944 23.85016 5.60226 10.37813 9.72305 -79.2209 -5.46576 3.31999 -3.04943 6.20813 6.19653 -5.00039 1.25253 -3.01737 -5.16848 -0.95865 0.83099 -7.1466 -7.23883 5.99812 4.6148 7.44736
0.00568 0.57986 -0.00039 191.17806 0 -4.15296 6.2235 4.90856 -3.59017 -12.61036 3.17799 -1.05706 21.93868 -13.16978 8.93402 10.02549 80.73864 -3.55168 -4.61423 25.65334 5.77407 9.98631 9.43808 -79.6766 -5.73444 4.19638 -2.99283 6.1921 5.85412 -5.22075 1.32974 -3.07611 -5.37995 -0.43948 0.6708 -8.15139 -8.17746 6.11229 4.79945 7.8924
0.00584 0.58002 -0.00017 191.68676 0 -4.1298 6.35807 4.88578 -3.56387 -12.99192 2.77399 -1.10771 23.20796 -12.59036 8.12497 9.76662 81.00956 -4.07433 -5.33878 27.45931 5.94392 9.30691 9.25803 -80.11312 -5.9787 4.97612 -2.92709 6.18071 5.55095 -5.44254 1.40236 -3.13252 -5.57465 0.04502 0.52478 -9.06848 -9.05058 6.21992 4.96825 8.29913
0.00599 0.58023 0.00011 192.16685 0 -4.09205 6.50537 4.85887 -3.54536 -13.39416 2.37573 -1.14352 24.57308 -12.0151 7.7506 9.53572 81.36719 -4.69252 -6.2354 29.39819 6.09881 8.32493 9.10582 -80.68519 -6.2188 5.94528 -2.97055 6.1369 5.16811 -5.44521 1.4005 -3.14931 -5.69258 0.4969 0.37959 -9.96514 -9.86042 6.30359 5.1327 8.71627
0.00616 0.58033 0.00029 192.73549 0 -4.08188 6.62632 4.83886 -3.51103 -13.75467 1.94608 -1.21513 25.70333 -11.40211 6.29125 9.19229 81.54971 -5.13341 -6.78986 31.03525 6.28764 8.15266 8.83852 -80.96676 -6.47945 6.54937 -2.77684 6.16191 4.95122 -5.93193 1.56474 -3.25444 -5.98631 1.03582 0.22458 -10.94857 -10.83827 6.44238 5.31432 9.12894
0.00639 0.58012 0.00023 193.53525 0 -4.16617 6.68079 4.85357 -3.44808 -14.01336 1.43742 -1.3988 26.26276 -10.69037 1.80812 8.56735 81.23094 -5.05437 -6.38882 31.92328 6.57212 9.96657 8.2863 -80.4662 -6.78927 6.09576 -1.94698 6.37776 5.10238 -7.71317 2.18127 -3.59966 -6.76956 1.81815 0.05735 -12.15302 -12.28568 6.73713 5.53925 9.51763
0.00664 0.5798 7e-05 194.41627 0 -4.27536 6.70745 4.87265 -3.36626 -14.22695 0.90313 -1.61408 26.58273 -9.95109 -3.68198 7.84225 80.73823 -4.79471 -5.64202 32.49793 6.8902 12.56945 7.63064 -79.67359 -7.11642 5.27527 -0.87913 6.66147 5.43922 -9.97727 2.96118 -4.03182 -7.72233 2.67924 -0.11944 -13.43111 -13.88541 7.08412 5.7788 9.89671
0.00687 0.57951 -6e-05 195.2473 0 -4.36144 6.74163 4.87885 -3.28138 -14.44923 0.39082 -1.80108 26.98104 -9.24428 -8.53757 7.18177 80.33436 -4.62228 -5.0499 33.17176 7.18921 14.83607 7.03913 -79.00326 -7.43057 4.63692 0.08801 6.91348 5.76124 -12.03457 3.66399 -4.42337 -8.58295 3.48754 -0.2972 -14.6543 -15.38369 7.4007 6.00864 10.27525
0.00716 0.57928 -0.00012 196.13693 0 -4.4962 6.79646 4.92938 -3.2441 -14.71934 -0.1674 -2.04639 27.49984 -8.44944 -14.17263 6.43289 79.88933 -4.43133 -4.46629 34.02408 7.50232 17.03651 6.36739 -78.3679 -7.76728 3.93637 1.03052 7.17243 5.7972 -14.05617 4.38498 -4.82309 -9.51191 4.37307 -0.45583 -15.9759 -17.02833 7.74765 6.25412 10.67949
0.00733 0.57891 -0.00036 196.92353 0 -4.53678 6.80303 4.89069 -3.10536 -14.8821 -0.63607 -2.17921 27.71712 -7.83175 -18.41175 5.84679 79.48894 -4.23494 -3.78698 34.43308 7.79681 19.55318 5.84069 -77.60095 -8.06177 3.27813 2.07342 7.42911 6.46197 -16.24799 5.10068 -5.22283 -10.33548 5.11256 -0.65338 -17.10648 -18.39699 8.04181 6.46828 11.0242
0.00724 0.57811 -0.0011 197.39205 0 -4.30026 6.67092 4.58668 -2.67111 -14.73261 -0.84019 -1.97764 27.12306 -7.7245 -18.53697 5.74187 79.25115 -4.06614 -2.88542 33.68035 8.00657 22.71527 5.7469 -76.45065 -8.22175 2.81337 3.39442 7.69646 8.91821 -18.94031 5.81033 -5.62958 -10.8455 5.45128 -0.97964 -17.69685 -19.00698 8.19068 6.60684 11.2289
0.00702 0.57719 -0.00202 197.75553 0 -3.97016 6.4935 4.19608 -2.13884 -14.48202 -0.95472 -1.66446 26.24279 -7.79492 -17.22087 5.8044 79.06496 -3.8979 -1.90707 32.49705 8.20105 26.16117 5.80274 -75.19269 -8.3401 2.4051 4.79666 7.95339 11.98158 -21.75909 6.50024 -6.02825 -11.23956 5.63563 -1.34004 -18.08991 -19.32518 8.282 6.71051 11.36946
0.00682 0.57636 -0.00287 198.17596 0 -3.69011 6.34479 3.85677 -1.66482 -14.29472 -1.11721 -1.41294 25.51699 -7.77464 -16.56734 5.78627 78.85703 -3.72994 -0.99158 31.5184 8.41889 29.50759 5.78637 -74.04733 -8.48721 1.97979 6.12324 8.19248 14.70225 -24.42179 7.16643 -6.41159 -11.67403 5.87605 -1.66935 -18.56943 -19.74978 8.39087 6.82046 11.52459
0.00677 0.57536 -0.00369 198.56219 0 -3.37921 6.16069 3.46707 -1.13331 -14.03085 -1.25073 -1.11702 24.67421 -7.79355 -15.91477 5.78231 78.63525 -3.55349 0.05375 30.48378 8.56858 32.79622 5.78315 -72.6333 -8.5967 1.5079 7.62321 8.52727 17.71443 -27.51716 7.9742 -6.87692 -12.16679 6.17926 -2.06529 -19.06723 -20.29167 8.53798 6.97131 11.74116
0.00639 0.57469 -0.00461 198.9914 0 -3.10997 6.04009 3.16187 -0.69725 -13.90525 -1.42216 -0.88585 24.01717 -7.77566 -14.90833 5.79173 78.45753 -3.39721 0.84266 29.47646 8.85616 36.21374 5.79051 -71.74413 -8.77031 1.14795 8.77632 8.66182 20.25733 -29.73575 8.483 -7.17002 -12.5078 6.31334 -2.32979 -19.47656 -20.51643 8.59099 7.02857 11.81441
0.00514 0.57501 -0.00572 199.58393 0 -2.97914 6.10456 3.11003 -0.56024 -14.16798 -1.72706 -0.86785 23.88626 -7.59386 -13.2377 5.78379 78.38409 -3.29681 0.90051 28.57679 9.52763 40.33188 5.78479 -72.44728 -9.16691 1.11431 8.96681 8.22469 21.38765 -29.49365 8.14609 -6.97526 -12.4621 6.02358 -2.22837 -19.71157 -19.94969 8.39896 6.83514 11.50945
0.00355 0.57567 -0.00692 200.21968 0 -2.89337 6.23489 3.14647 -0.52111 -14.5772 -2.07182 -0.91767 23.96464 -7.37259 -11.26195 5.78721 78.35525 -3.21739 0.6967 27.73573 10.33799 44.49143 5.78772 -73.66469 -9.62315 1.18835 8.80172 7.59015 22.01787 -28.36438 7.51259 -6.60957 -12.26621 5.56798 -1.99251 -19.86047 -19.07144 8.1139 6.54889 11.06231
0.00212 0.57616 -0.00811 200.82242 0 -2.78641 6.33611 3.14319 -0.42911 -14.93126 -2.39366 -0.93127 23.98478 -7.18189 -9.44797 5.79388 78.30957 -3.12921 0.61371 26.91605 11.0854 48.35266 5.78899 -74.56828 -10.028 1.19344 8.78794 7.05945 22.85529 -27.64404 7.03074 -6.33121 -12.13543 5.18375 -1.81451 -20.03344 -18.32563 7.87059 6.30547 10.67891
0.00067 0.57669 -0.0092 201.47677 0 -2.67877 6.43228 3.135 -0.36707 -15.23268 -2.7326 -0.96257 23.83631 -6.94396 -7.4908 5.76812 78.24984 -3.03821 0.52556 25.87418 11.83294 53.39245 5.77945 -75.79529 -10.53214 1.28097 8.81928 6.46827 23.79882 -26.90257 6.47805 -6.01236 -12.01341 4.80913 -1.65105 -20.2608 -17.60514 7.62719 6.05771 10.29635
